<?xml version="1.0" encoding="UTF-8" standalone="no"?>
<!DOCTYPE svg PUBLIC "-//W3C//DTD SVG 1.1//EN"
 "http://www.w3.org/Graphics/SVG/1.1/DTD/svg11.dtd">
<!-- Generated by graphviz version 2.43.0 (0)
 -->
<!-- Title: combined Pages: 1 -->
<svg width="294pt" height="155pt"
 viewBox="0.00 0.00 294.00 155.00" xmlns="http://www.w3.org/2000/svg" xmlns:xlink="http://www.w3.org/1999/xlink">
<g id="graph0" class="graph" transform="scale(1 1) rotate(0) translate(4 151)">
<title>combined</title>
<polygon fill="white" stroke="transparent" points="-4,4 -4,-151 290,-151 290,4 -4,4"/>
<g id="clust1" class="cluster">
<title>a</title>
<polygon fill="none" stroke="black" points="8,-64 8,-139 150,-139 150,-64 8,-64"/>
<text text-anchor="middle" x="79" y="-123.8" font-family="Times,serif" font-size="14.00">A</text>
</g>
<!-- a.e -->
<g id="node1" class="node">
<title>a.e</title>
<ellipse fill="none" stroke="black" cx="115" cy="-90" rx="27" ry="18"/>
<text text-anchor="middle" x="115" y="-86.3" font-family="Times,serif" font-size="14.00">E</text>
</g>
<!-- a.b -->
<g id="node2" class="node">
<title>a.b</title>
<ellipse fill="none" stroke="black" cx="43" cy="-90" rx="27" ry="18"/>
<text text-anchor="middle" x="43" y="-86.3" font-family="Times,serif" font-size="14.00">B</text>
</g>
<!-- c -->
<g id="node5" class="node">
<title>c</title>
<polygon fill="lightblue" stroke="black" points="70,-36 16,-36 16,0 70,0 70,-36"/>
<text text-anchor="middle" x="43" y="-14.3" font-family="Times,serif" font-size="14.00">C</text>
</g>
<!-- a.b&#45;&gt;c -->
<g id="edge1" class="edge">
<title>a.b&#45;&gt;c</title>
<path fill="none" stroke="red" d="M43,-71.7C43,-63.98 43,-54.71 43,-46.11"/>
<polygon fill="red" stroke="red" points="46.5,-46.1 43,-36.1 39.5,-46.1 46.5,-46.1"/>
</g>
<!-- i -->
<g id="node3" class="node">
<title>i</title>
<polygon fill="lightblue" stroke="black" points="214,-108 160,-108 160,-72 214,-72 214,-108"/>
<text text-anchor="middle" x="187" y="-86.3" font-family="Times,serif" font-size="14.00">I</text>
</g>
<!-- d -->
<g id="node4" class="node">
<title>d</title>
<polygon fill="lightblue" stroke="black" points="286,-108 232,-108 232,-72 286,-72 286,-108"/>
<text text-anchor="middle" x="259" y="-86.3" font-family="Times,serif" font-size="14.00">D</text>
</g>
</g>
</svg>
