<?xml version="1.0" encoding="UTF-8" standalone="no"?>
<!DOCTYPE svg PUBLIC "-//W3C//DTD SVG 1.1//EN"
 "http://www.w3.org/Graphics/SVG/1.1/DTD/svg11.dtd">
<!-- Generated by graphviz version 2.43.0 (0)
 -->
<!-- Title: scope_parent Pages: 1 -->
<svg width="240pt" height="99pt"
 viewBox="0.00 0.00 240.00 99.00" xmlns="http://www.w3.org/2000/svg" xmlns:xlink="http://www.w3.org/1999/xlink">
<g id="graph0" class="graph" transform="scale(1 1) rotate(0) translate(4 95)">
<title>scope_parent</title>
<polygon fill="white" stroke="transparent" points="-4,4 -4,-95 236,-95 236,4 -4,4"/>
<g id="clust1" class="cluster">
<title>a</title>
<polygon fill="none" stroke="black" points="8,-8 8,-83 168,-83 168,-8 8,-8"/>
<text text-anchor="middle" x="88" y="-67.8" font-family="Times,serif" font-size="14.00">A</text>
</g>
<!-- a.b -->
<g id="node1" class="node">
<title>a.b</title>
<ellipse fill="none" stroke="black" cx="115" cy="-34" rx="27" ry="18"/>
<text text-anchor="middle" x="115" y="-30.3" font-family="Times,serif" font-size="14.00">B</text>
</g>
<!-- a.b&#45;&gt;a.b -->
<g id="edge1" class="edge">
<title>a.b&#45;&gt;a.b</title>
<path fill="none" stroke="black" d="M115,-34C130,-43 160,-43 160,-34 160,-30.77 156.14,-28.7 150.49,-27.79"/>
<polygon fill="black" stroke="black" points="150.6,-24.29 140.44,-27.31 150.27,-31.28 150.6,-24.29"/>
</g>
<!-- a.e -->
<g id="node2" class="node">
<title>a.e</title>
<ellipse fill="none" stroke="black" cx="43" cy="-34" rx="27" ry="18"/>
<text text-anchor="middle" x="43" y="-30.3" font-family="Times,serif" font-size="14.00">E</text>
</g>
<!-- d -->
<g id="node3" class="node">
<title>d</title>
<polygon fill="lightblue" stroke="black" points="232,-52 178,-52 178,-16 232,-16 232,-52"/>
<text text-anchor="middle" x="205" y="-30.3" font-family="Times,serif" font-size="14.00">D</text>
</g>
</g>
</svg>
