<?xml version="1.0" encoding="UTF-8" standalone="no"?>
<!DOCTYPE svg PUBLIC "-//W3C//DTD SVG 1.1//EN"
 "http://www.w3.org/Graphics/SVG/1.1/DTD/svg11.dtd">
<!-- Generated by graphviz version 12.2.1 (20241206.2353)
 -->
<!-- Title: tag1_view Pages: 1 -->
<svg width="170pt" height="116pt"
 viewBox="0.00 0.00 170.00 116.00" xmlns="http://www.w3.org/2000/svg" xmlns:xlink="http://www.w3.org/1999/xlink">
<g id="graph0" class="graph" transform="scale(1 1) rotate(0) translate(4 112)">
<title>tag1_view</title>
<polygon fill="white" stroke="none" points="-4,4 -4,-112 166,-112 166,4 -4,4"/>
<!-- c -->
<g id="node1" class="node">
<title>c</title>
<ellipse fill="none" stroke="black" cx="27" cy="-90" rx="27" ry="18"/>
<text text-anchor="middle" x="27" y="-85.33" font-family="Times,serif" font-size="14.00">C</text>
</g>
<!-- d -->
<g id="node2" class="node">
<title>d</title>
<ellipse fill="none" stroke="black" cx="63" cy="-18" rx="27" ry="18"/>
<text text-anchor="middle" x="63" y="-13.32" font-family="Times,serif" font-size="14.00">D</text>
</g>
<!-- b -->
<g id="node3" class="node">
<title>b</title>
<ellipse fill="none" stroke="black" cx="135" cy="-18" rx="27" ry="18"/>
<text text-anchor="middle" x="135" y="-13.32" font-family="Times,serif" font-size="14.00">B</text>
</g>
<!-- a -->
<g id="node4" class="node">
<title>a</title>
<ellipse fill="none" stroke="black" cx="99" cy="-90" rx="27" ry="18"/>
<text text-anchor="middle" x="99" y="-85.33" font-family="Times,serif" font-size="14.00">A</text>
</g>
<!-- a&#45;&gt;d -->
<g id="edge2" class="edge">
<title>a&#45;&gt;d</title>
<path fill="none" stroke="black" d="M90.65,-72.76C86.42,-64.55 81.19,-54.37 76.42,-45.09"/>
<polygon fill="black" stroke="black" points="79.68,-43.79 72,-36.49 73.46,-46.99 79.68,-43.79"/>
</g>
<!-- a&#45;&gt;b -->
<g id="edge1" class="edge">
<title>a&#45;&gt;b</title>
<path fill="none" stroke="black" d="M107.35,-72.76C111.58,-64.55 116.81,-54.37 121.58,-45.09"/>
<polygon fill="black" stroke="black" points="124.54,-46.99 126,-36.49 118.32,-43.79 124.54,-46.99"/>
</g>
</g>
</svg>
