<?xml version="1.0" encoding="UTF-8" standalone="no"?>
<!DOCTYPE svg PUBLIC "-//W3C//DTD SVG 1.1//EN"
 "http://www.w3.org/Graphics/SVG/1.1/DTD/svg11.dtd">
<!-- Generated by graphviz version 2.43.0 (0)
 -->
<!-- Title: use_case_style_nodes Pages: 1 -->
<svg width="778pt" height="152pt"
 viewBox="0.00 0.00 778.49 152.00" xmlns="http://www.w3.org/2000/svg" xmlns:xlink="http://www.w3.org/1999/xlink">
<g id="graph0" class="graph" transform="scale(1 1) rotate(0) translate(4 148)">
<title>use_case_style_nodes</title>
<polygon fill="white" stroke="transparent" points="-4,4 -4,-148 774.49,-148 774.49,4 -4,4"/>
<!-- hh_use_case_relationship_helper -->
<!-- hh_use_case_relationship_helper&#45;&gt;hh_use_case_relationship_helper -->
<g id="edge1" class="edge">
<title>hh_use_case_relationship_helper&#45;&gt;hh_use_case_relationship_helper</title>
<path fill="none" stroke="black" d="M54.24,-73.5C64.02,-73.53 72,-73.03 72,-72 72,-70.97 64.02,-70.47 54.24,-70.5"/>
</g>
<!-- hh_use_case_relationship_helper&#45;&gt;hh_use_case_relationship_helper -->
<g id="edge2" class="edge">
<title>hh_use_case_relationship_helper&#45;&gt;hh_use_case_relationship_helper</title>
<path fill="none" stroke="black" stroke-dasharray="5,2" d="M54.2,-74.74C72.34,-75.51 90,-74.59 90,-72 90,-69.81 77.43,-68.82 62.6,-69.03"/>
<polygon fill="black" stroke="black" points="54.2,-69.26 62.09,-65.44 58.2,-69.15 62.19,-69.04 62.19,-69.04 62.19,-69.04 58.2,-69.15 62.3,-72.64 54.2,-69.26 54.2,-69.26"/>
<text text-anchor="middle" x="114" y="-69.5" font-family="Helvetica,sans-Serif" font-size="10.00">«include»</text>
</g>
<!-- hh_use_case_relationship_helper&#45;&gt;hh_use_case_relationship_helper -->
<g id="edge3" class="edge">
<title>hh_use_case_relationship_helper&#45;&gt;hh_use_case_relationship_helper</title>
<path fill="none" stroke="black" stroke-dasharray="5,2" d="M54.1,-75.27C89.26,-77.66 138,-76.57 138,-72 138,-67.77 96.23,-66.52 62.13,-68.26"/>
<polygon fill="black" stroke="black" points="54.1,-68.73 61.88,-64.67 58.1,-68.5 62.09,-68.26 62.09,-68.26 62.09,-68.26 58.1,-68.5 62.3,-71.85 54.1,-68.73 54.1,-68.73"/>
<text text-anchor="middle" x="161" y="-69.5" font-family="Helvetica,sans-Serif" font-size="10.00">«extend»</text>
</g>
<!-- hh_use_case_relationship_helper&#45;&gt;hh_use_case_relationship_helper -->
<g id="edge4" class="edge">
<title>hh_use_case_relationship_helper&#45;&gt;hh_use_case_relationship_helper</title>
<path fill="none" stroke="black" d="M54.09,-75.69C102.53,-79.71 184,-78.48 184,-72 184,-65.87 111.2,-64.44 62.32,-67.7"/>
<polygon fill="black" stroke="black" points="61.86,-64.93 54.09,-68.31 62.28,-70.51 61.86,-64.93"/>
</g>
<!-- hh_use_case_relationship_helper&#45;&gt;hh_use_case_relationship_helper -->
<g id="edge5" class="edge">
<title>hh_use_case_relationship_helper&#45;&gt;hh_use_case_relationship_helper</title>
<path fill="none" stroke="black" d="M54.14,-76.23C108.29,-81.71 202,-80.3 202,-72 202,-64.1 117.22,-62.44 62.34,-67.02"/>
<polygon fill="none" stroke="black" points="61.85,-64.25 54.14,-67.77 62.36,-69.82 61.85,-64.25"/>
</g>
<!-- hh_use_case_node -->
<g id="node2" class="node">
<title>hh_use_case_node</title>
<ellipse fill="none" stroke="black" cx="283" cy="-72" rx="27" ry="18"/>
</g>
<!-- hh_use_case_case -->
<g id="node3" class="node">
<title>hh_use_case_case</title>
<ellipse fill="#f0f8ff" stroke="black" cx="393" cy="-72" rx="65" ry="32.5"/>
</g>
<!-- hh_use_case_system_boundary -->
<g id="node4" class="node">
<title>hh_use_case_system_boundary</title>
<path fill="#fafafa" stroke="black" d="M680,-144C680,-144 488,-144 488,-144 482,-144 476,-138 476,-132 476,-132 476,-12 476,-12 476,-6 482,0 488,0 488,0 680,0 680,0 686,0 692,-6 692,-12 692,-12 692,-132 692,-132 692,-138 686,-144 680,-144"/>
</g>
<!-- hh_use_case_actor -->
<g id="node5" class="node">
<title>hh_use_case_actor</title>
<polygon fill="#e6f3ff" stroke="transparent" points="770.48,-78.85 747.2,-78.85 740,-101 732.8,-78.85 709.52,-78.85 728.36,-65.15 721.16,-43 740,-56.69 758.84,-43 751.64,-65.15 770.48,-78.85"/>
</g>
</g>
</svg>
