<?xml version="1.0" encoding="UTF-8" standalone="no"?>
<!DOCTYPE svg PUBLIC "-//W3C//DTD SVG 1.1//EN"
 "http://www.w3.org/Graphics/SVG/1.1/DTD/svg11.dtd">
<!-- Generated by graphviz version 12.2.1 (20241206.2353)
 -->
<!-- Title: default Pages: 1 -->
<svg width="62pt" height="188pt"
 viewBox="0.00 0.00 62.00 188.00" xmlns="http://www.w3.org/2000/svg" xmlns:xlink="http://www.w3.org/1999/xlink">
<g id="graph0" class="graph" transform="scale(1 1) rotate(0) translate(4 184)">
<title>default</title>
<polygon fill="white" stroke="none" points="-4,4 -4,-184 58,-184 58,4 -4,4"/>
<!-- node1 -->
<g id="node1" class="node">
<title>node1</title>
<polygon fill="#6c4d9b" stroke="black" points="54,-180 0,-180 0,-144 54,-144 54,-180"/>
<text text-anchor="middle" x="27" y="-157.32" font-family="Times,serif" font-size="14.00">A</text>
</g>
<!-- node2 -->
<g id="node3" class="node">
<title>node2</title>
<polygon fill="#2ba516" stroke="black" points="54,-108 0,-108 0,-72 54,-72 54,-108"/>
<text text-anchor="middle" x="27" y="-85.33" font-family="Times,serif" font-size="14.00">B</text>
</g>
<!-- node1&#45;&gt;node2 -->
<g id="edge1" class="edge">
<title>node1&#45;&gt;node2</title>
<path fill="none" stroke="#9c11a0" d="M27,-143.7C27,-136.41 27,-127.73 27,-119.54"/>
<polygon fill="#9c11a0" stroke="#9c11a0" points="30.5,-119.62 27,-109.62 23.5,-119.62 30.5,-119.62"/>
</g>
<!-- node3 -->
<g id="node2" class="node">
<title>node3</title>
<ellipse fill="#507481" stroke="#38e0ea" cx="27" cy="-18" rx="27" ry="18"/>
<text text-anchor="middle" x="27" y="-13.32" font-family="Times,serif" font-size="14.00" fill="#ac052a">C</text>
</g>
<!-- node2&#45;&gt;node3 -->
<g id="edge2" class="edge">
<title>node2&#45;&gt;node3</title>
<path fill="none" stroke="#d6891b" d="M27,-71.7C27,-64.41 27,-55.73 27,-47.54"/>
<polygon fill="#d6891b" stroke="#d6891b" points="30.5,-47.62 27,-37.62 23.5,-47.62 30.5,-47.62"/>
</g>
</g>
</svg>
