<?xml version="1.0" encoding="UTF-8" standalone="no"?>
<!DOCTYPE svg PUBLIC "-//W3C//DTD SVG 1.1//EN"
 "http://www.w3.org/Graphics/SVG/1.1/DTD/svg11.dtd">
<!-- Generated by graphviz version 2.43.0 (0)
 -->
<!-- Title: state_machine_style_nodes Pages: 1 -->
<svg width="362pt" height="44pt"
 viewBox="0.00 0.00 362.00 44.00" xmlns="http://www.w3.org/2000/svg" xmlns:xlink="http://www.w3.org/1999/xlink">
<g id="graph0" class="graph" transform="scale(1 1) rotate(0) translate(4 40)">
<title>state_machine_style_nodes</title>
<polygon fill="white" stroke="transparent" points="-4,4 -4,-40 358,-40 358,4 -4,4"/>
<!-- hh_state_machine_initial -->
<g id="node1" class="node">
<title>hh_state_machine_initial</title>
<ellipse fill="black" stroke="black" cx="11" cy="-18" rx="11" ry="11"/>
</g>
<!-- hh_state_machine_junction -->
<g id="node2" class="node">
<title>hh_state_machine_junction</title>
<polygon fill="black" stroke="black" points="112,-20 40,-20 40,-16 112,-16 112,-20"/>
</g>
<!-- hh_state_machine_choice -->
<g id="node3" class="node">
<title>hh_state_machine_choice</title>
<polygon fill="black" stroke="black" points="141,-29 130,-18 141,-7 152,-18 141,-29"/>
</g>
<!-- hh_state_machine_final -->
<g id="node4" class="node">
<title>hh_state_machine_final</title>
<ellipse fill="black" stroke="black" cx="181" cy="-18" rx="7" ry="7"/>
<ellipse fill="none" stroke="black" cx="181" cy="-18" rx="11" ry="11"/>
</g>
<!-- hh_state_machine_node -->
<g id="node5" class="node">
<title>hh_state_machine_node</title>
<ellipse fill="none" stroke="black" cx="237" cy="-18" rx="27" ry="18"/>
</g>
<!-- hh_state_machine_node&#45;&gt;hh_state_machine_node -->
<g id="edge1" class="edge">
<title>hh_state_machine_node&#45;&gt;hh_state_machine_node</title>
<path fill="none" stroke="black" d="M262.44,-24.69C273.03,-25.15 282,-22.92 282,-18 282,-14.46 277.36,-12.32 270.83,-11.56"/>
<polygon fill="black" stroke="black" points="270.52,-8.75 262.44,-11.31 270.36,-14.35 270.52,-8.75"/>
</g>
<!-- hh_state_machine_regular -->
<g id="node6" class="node">
<title>hh_state_machine_regular</title>
<path fill="#f0f8ff" stroke="black" d="M342,-36C342,-36 312,-36 312,-36 306,-36 300,-30 300,-24 300,-24 300,-12 300,-12 300,-6 306,0 312,0 312,0 342,0 342,0 348,0 354,-6 354,-12 354,-12 354,-24 354,-24 354,-30 348,-36 342,-36"/>
</g>
</g>
</svg>
