<?xml version="1.0" encoding="UTF-8" standalone="no"?>
<!DOCTYPE svg PUBLIC "-//W3C//DTD SVG 1.1//EN"
 "http://www.w3.org/Graphics/SVG/1.1/DTD/svg11.dtd">
<!-- Generated by graphviz version 2.43.0 (0)
 -->
<!-- Title: state_machine_example Pages: 1 -->
<svg width="265pt" height="458pt"
 viewBox="0.00 0.00 265.00 458.00" xmlns="http://www.w3.org/2000/svg" xmlns:xlink="http://www.w3.org/1999/xlink">
<g id="graph0" class="graph" transform="scale(1 1) rotate(0) translate(4 454)">
<title>state_machine_example</title>
<polygon fill="white" stroke="transparent" points="-4,4 -4,-454 261,-454 261,4 -4,4"/>
<!-- state1 -->
<g id="node1" class="node">
<title>state1</title>
<path fill="#f0f8ff" stroke="black" d="M51,-156C51,-156 21,-156 21,-156 15,-156 9,-150 9,-144 9,-144 9,-132 9,-132 9,-126 15,-120 21,-120 21,-120 51,-120 51,-120 57,-120 63,-126 63,-132 63,-132 63,-144 63,-144 63,-150 57,-156 51,-156"/>
<text text-anchor="middle" x="36" y="-134.9" font-family="Helvetica,sans-Serif" font-size="12.00">state1</text>
</g>
<!-- end1 -->
<g id="node8" class="node">
<title>end1</title>
<ellipse fill="black" stroke="black" cx="52" cy="-11" rx="7" ry="7"/>
<ellipse fill="none" stroke="black" cx="52" cy="-11" rx="11" ry="11"/>
</g>
<!-- state1&#45;&gt;end1 -->
<g id="edge2" class="edge">
<title>state1&#45;&gt;end1</title>
<path fill="none" stroke="black" d="M38.19,-119.88C41.21,-96.3 46.62,-54.02 49.7,-29.99"/>
<polygon fill="black" stroke="black" points="52.48,-30.32 50.72,-22.03 46.92,-29.61 52.48,-30.32"/>
<text text-anchor="middle" x="69" y="-94" font-family="Helvetica,sans-Serif" font-size="10.00">from state</text>
<text text-anchor="middle" x="69" y="-83" font-family="Helvetica,sans-Serif" font-size="10.00">to end</text>
</g>
<!-- fork1 -->
<g id="node2" class="node">
<title>fork1</title>
<polygon fill="black" stroke="black" points="72,-281 0,-281 0,-277 72,-277 72,-281"/>
</g>
<!-- fork1&#45;&gt;state1 -->
<g id="edge1" class="edge">
<title>fork1&#45;&gt;state1</title>
<path fill="none" stroke="black" d="M36,-276.44C36,-265.61 36,-201.09 36,-164.42"/>
<polygon fill="black" stroke="black" points="38.8,-164.18 36,-156.18 33.2,-164.18 38.8,-164.18"/>
<text text-anchor="middle" x="59" y="-242" font-family="Helvetica,sans-Serif" font-size="10.00">from fork</text>
<text text-anchor="middle" x="59" y="-231" font-family="Helvetica,sans-Serif" font-size="10.00">to state</text>
</g>
<!-- state2 -->
<g id="node4" class="node">
<title>state2</title>
<path fill="#f0f8ff" stroke="black" d="M124,-210C124,-210 94,-210 94,-210 88,-210 82,-204 82,-198 82,-198 82,-186 82,-186 82,-180 88,-174 94,-174 94,-174 124,-174 124,-174 130,-174 136,-180 136,-186 136,-186 136,-198 136,-198 136,-204 130,-210 124,-210"/>
<text text-anchor="middle" x="109" y="-188.9" font-family="Helvetica,sans-Serif" font-size="12.00">state2</text>
</g>
<!-- fork1&#45;&gt;state2 -->
<g id="edge4" class="edge">
<title>fork1&#45;&gt;state2</title>
<path fill="none" stroke="black" d="M39.43,-276.97C48.33,-274.14 72.46,-265.38 86,-250 93.98,-240.94 99.4,-228.75 102.96,-217.97"/>
<polygon fill="black" stroke="black" points="105.71,-218.54 105.34,-210.08 100.35,-216.93 105.71,-218.54"/>
<text text-anchor="middle" x="122" y="-242" font-family="Helvetica,sans-Serif" font-size="10.00">from fork</text>
<text text-anchor="middle" x="122" y="-231" font-family="Helvetica,sans-Serif" font-size="10.00">to state</text>
</g>
<!-- end2 -->
<g id="node3" class="node">
<title>end2</title>
<ellipse fill="black" stroke="black" cx="109" cy="-279" rx="7" ry="7"/>
<ellipse fill="none" stroke="black" cx="109" cy="-279" rx="11" ry="11"/>
</g>
<!-- join2 -->
<g id="node5" class="node">
<title>join2</title>
<polygon fill="black" stroke="black" points="178,-93 106,-93 106,-89 178,-89 178,-93"/>
</g>
<!-- state2&#45;&gt;join2 -->
<g id="edge6" class="edge">
<title>state2&#45;&gt;join2</title>
<path fill="none" stroke="black" d="M107.7,-173.87C107.25,-158.98 108.27,-137.17 116,-120 119.97,-111.18 127.85,-103.33 133.9,-98.2"/>
<polygon fill="black" stroke="black" points="135.89,-100.19 140.47,-93.06 132.44,-95.78 135.89,-100.19"/>
<text text-anchor="middle" x="142" y="-141" font-family="Helvetica,sans-Serif" font-size="10.00">from state</text>
<text text-anchor="middle" x="142" y="-130" font-family="Helvetica,sans-Serif" font-size="10.00">to join</text>
</g>
<!-- join2&#45;&gt;end1 -->
<g id="edge8" class="edge">
<title>join2&#45;&gt;end1</title>
<path fill="none" stroke="black" d="M140.73,-88.9C132.72,-81.95 88.85,-43.93 65.94,-24.08"/>
<polygon fill="black" stroke="black" points="67.7,-21.9 59.82,-18.78 64.04,-26.14 67.7,-21.9"/>
<text text-anchor="middle" x="130.5" y="-54" font-family="Helvetica,sans-Serif" font-size="10.00">from join</text>
<text text-anchor="middle" x="130.5" y="-43" font-family="Helvetica,sans-Serif" font-size="10.00">to end</text>
</g>
<!-- start -->
<g id="node6" class="node">
<title>start</title>
<ellipse fill="black" stroke="black" cx="109" cy="-439" rx="11" ry="11"/>
</g>
<!-- choice1 -->
<g id="node7" class="node">
<title>choice1</title>
<polygon fill="black" stroke="black" points="109,-370 98,-359 109,-348 120,-359 109,-370"/>
</g>
<!-- start&#45;&gt;choice1 -->
<g id="edge9" class="edge">
<title>start&#45;&gt;choice1</title>
<path fill="none" stroke="black" d="M109,-427.8C109,-415.38 109,-394.13 109,-378.73"/>
<polygon fill="black" stroke="black" points="111.8,-378.45 109,-370.45 106.2,-378.45 111.8,-378.45"/>
<text text-anchor="middle" x="133.5" y="-402" font-family="Helvetica,sans-Serif" font-size="10.00">from start</text>
<text text-anchor="middle" x="133.5" y="-391" font-family="Helvetica,sans-Serif" font-size="10.00">to choice</text>
</g>
<!-- choice1&#45;&gt;fork1 -->
<g id="edge3" class="edge">
<title>choice1&#45;&gt;fork1</title>
<path fill="none" stroke="black" d="M100.29,-356.61C86.73,-353.96 60.69,-346.88 47,-330 37.59,-318.4 35.8,-300.49 35.67,-289.55"/>
<polygon fill="black" stroke="black" points="38.47,-289.49 35.88,-281.42 32.88,-289.35 38.47,-289.49"/>
<text text-anchor="middle" x="76" y="-322" font-family="Helvetica,sans-Serif" font-size="10.00">from choice</text>
<text text-anchor="middle" x="76" y="-311" font-family="Helvetica,sans-Serif" font-size="10.00">to fork</text>
</g>
<!-- choice1&#45;&gt;end2 -->
<g id="edge5" class="edge">
<title>choice1&#45;&gt;end2</title>
<path fill="none" stroke="black" d="M109,-347.8C109,-335.38 109,-314.13 109,-298.73"/>
<polygon fill="black" stroke="black" points="111.8,-298.45 109,-290.45 106.2,-298.45 111.8,-298.45"/>
<text text-anchor="middle" x="138" y="-322" font-family="Helvetica,sans-Serif" font-size="10.00">from choice</text>
<text text-anchor="middle" x="138" y="-311" font-family="Helvetica,sans-Serif" font-size="10.00">to end</text>
</g>
<!-- choice1&#45;&gt;join2 -->
<g id="edge7" class="edge">
<title>choice1&#45;&gt;join2</title>
<path fill="none" stroke="black" d="M118.18,-356.71C131.8,-354.24 156.97,-347.44 168,-330 217.88,-251.11 202.11,-206.88 168,-120 164.47,-111 156.53,-103.17 150.35,-98.1"/>
<polygon fill="black" stroke="black" points="151.67,-95.59 143.58,-93.04 148.31,-100.07 151.67,-95.59"/>
<text text-anchor="middle" x="228" y="-242" font-family="Helvetica,sans-Serif" font-size="10.00">from choice</text>
<text text-anchor="middle" x="228" y="-231" font-family="Helvetica,sans-Serif" font-size="10.00">to join</text>
</g>
</g>
</svg>
